<svg version="1.1" id="Layer_1" xmlns="http://www.w3.org/2000/svg" xmlns:xlink="http://www.w3.org/1999/xlink" x="0px" y="0px"
	 width="100%" viewBox="0 0 128 129" enable-background="new 0 0 128 129" xml:space="preserve">

<path fill="#070606" opacity="1.000000" stroke="none" 
	d="
	M113.972977,127.596054 
	C103.687218,127.596046 93.896194,127.596046 83.869209,127.596046 
	C83.869209,121.587784 83.869209,116.141205 83.869209,110.172997 
	C92.598045,110.172997 101.194908,110.172997 110.166214,110.172997 
	C110.344482,108.251068 110.594147,106.808037 110.595055,105.364845 
	C110.612091,78.205322 110.557983,51.045631 110.653854,23.886459 
	C110.664146,20.969229 109.166405,20.519535 106.964455,20.503717 
	C102.798309,20.473793 98.631760,20.503330 94.465378,20.502419 
	C71.299797,20.497351 48.134216,20.485584 24.968649,20.496187 
	C23.513437,20.496853 22.058304,20.667700 20.216759,20.783712 
	C20.216759,27.931471 20.216759,34.703976 20.216759,41.853165 
	C14.615605,41.853165 9.420464,41.853165 3.953606,41.853165 
	C3.953606,28.903828 3.953606,16.170664 3.953606,3.223466 
	C44.844658,3.223466 85.602188,3.223466 126.613571,3.223466 
	C126.613571,44.613544 126.613571,85.831528 126.613571,127.596069 
	C122.386024,127.596069 118.426872,127.596069 113.972977,127.596054 
z"/>
<path fill="#060606" opacity="1.000000" stroke="none" 
	d="
M28.706507,46.161850 
	C28.420124,43.269535 29.158945,41.902393 31.928303,41.994606 
	C36.052319,42.131920 40.184292,42.030205 44.641579,42.030205 
	C44.641579,66.449814 44.641579,90.467201 44.641579,114.836945 
	C39.331425,114.836945 34.157772,114.836945 28.735344,114.836945 
	C28.735344,91.839432 28.735344,69.241684 28.706507,46.161850 
z"/>
<path fill="#0C0C0C" opacity="1.000000" stroke="none" 
	d="
M55.334129,99.999756 
	C55.333015,84.547005 55.333015,69.594261 55.333015,54.319008 
	C60.558437,54.319008 65.436081,54.319008 70.712624,54.319008 
	C70.836632,55.818050 71.057404,57.255886 71.059242,58.693996 
	C71.086227,79.830048 70.995354,100.966873 71.169060,122.101562 
	C71.201050,125.993347 70.254669,127.570259 66.145103,127.086014 
	C62.882828,126.701599 59.539082,127.008583 55.335239,127.008583 
	C55.335239,117.988419 55.335239,109.244087 55.334129,99.999756 
z"/>
<path fill="#050505" opacity="1.000000" stroke="none" 
	d="
M19.023220,104.999939 
	C19.024874,112.447807 19.024874,119.395706 19.024874,126.673897 
	C13.769660,126.673897 9.051678,126.673897 4.008553,126.673897 
	C4.008553,102.521545 4.008553,78.499367 4.008553,54.252632 
	C8.805634,54.252632 13.566787,54.252632 19.021564,54.252632 
	C19.021564,71.040375 19.021564,87.770172 19.023220,104.999939 
z"/>
</svg>